<svg width="20" height="23" viewBox="0 0 20 23" fill="none" xmlns="http://www.w3.org/2000/svg">
<path d="M8.78097 23C6.25941 22.6883 4.16552 21.6008 2.49931 19.7375C0.833105 17.8742 0 15.6804 0 13.1562C0 11.8126 0.264123 10.5244 0.792369 9.29164C1.32061 8.05904 2.07235 6.97515 3.04757 6.03998L5.02514 7.99279C4.28702 8.66799 3.72718 9.44781 3.34563 10.3322C2.96407 11.2167 2.77329 12.158 2.77329 13.1562C2.77329 14.9089 3.33486 16.4542 4.45799 17.7919C5.58112 19.1294 7.02212 19.9468 8.78097 20.244V23ZM11.219 23V20.244C12.9622 19.9315 14.3994 19.1091 15.5304 17.7768C16.6613 16.4443 17.2267 14.9041 17.2267 13.1562C17.2267 11.1954 16.5411 9.52222 15.1699 8.13657C13.7987 6.75113 12.1264 6.03917 10.153 6.00071H10.0326L11.4171 7.37297L9.63033 9.14394L5.02118 4.57559L9.63033 0L11.4171 1.77097L9.93052 3.24472H10.0582C12.8341 3.24472 15.1851 4.20758 17.1112 6.13331C19.0371 8.05904 20 10.4 20 13.1562C20 15.6603 19.1669 17.8452 17.5007 19.7109C15.8345 21.5766 13.7406 22.673 11.219 23Z" fill="#554301"/>
</svg>
