<svg width="80" height="80" viewBox="0 0 80 80" fill="none" xmlns="http://www.w3.org/2000/svg">
<path d="M2.21153 10.7021C0.990137 9.47973 0.949357 7.53863 2.12045 6.36658L6.36134 2.12219C7.53243 0.950139 9.47193 0.990953 10.6933 2.21336L76.9518 68.5264C78.1732 69.7488 78.214 71.6899 77.0429 72.862L72.802 77.1064C71.6309 78.2784 69.6914 78.2376 68.47 77.0152L2.21153 10.7021Z" fill="#1C1500"/>
<path d="M68.7885 2.70213C70.0099 1.47972 71.9494 1.43891 73.1204 2.61097L77.3613 6.85535C78.5324 8.02741 78.4917 9.9685 77.2703 11.1909L11.0118 77.504C9.79036 78.7264 7.85086 78.7672 6.67977 77.5951L2.43888 73.3507C1.26779 72.1787 1.30857 70.2376 2.52997 69.0152L68.7885 2.70213Z" fill="#1C1500"/>
</svg>
