<svg xmlns="http://www.w3.org/2000/svg" version="1.1" xmlns:xlink="http://www.w3.org/1999/xlink" xmlns:svgjs="http://svgjs.dev/svgjs" width="1000" height="1000"><g clip-path="url(#SvgjsClipPath1055)"><rect width="1000" height="1000" fill="#ffbf00"></rect><g transform="matrix(5.555555555555555,0,0,5.555555555555555,0,0)"><svg xmlns="http://www.w3.org/2000/svg" version="1.1" xmlns:xlink="http://www.w3.org/1999/xlink" xmlns:svgjs="http://svgjs.dev/svgjs" width="180" height="180"><svg width="180" height="180" viewBox="0 0 180 180" fill="none" xmlns="http://www.w3.org/2000/svg">
<rect width="180" height="180" rx="16" fill="#FFBF00"></rect>
<path d="M30.9531 37.589C30.0044 36.6395 30.0044 35.1 30.9531 34.1505L34.3886 30.7121C35.3372 29.7626 36.8754 29.7626 37.824 30.7121L89.2885 82.2204C90.2372 83.1699 90.2372 84.7093 89.2885 85.6588L85.853 89.0972C84.9043 90.0467 83.3662 90.0467 82.4175 89.0972L30.9531 37.589Z" fill="#1C1500"></path>
<path d="M82.176 30.9028C83.1246 29.9533 84.6628 29.9533 85.6115 30.9028L89.0469 34.3412C89.9956 35.2907 89.9956 36.8301 89.0469 37.7796L37.5825 89.2879C36.6338 90.2374 35.0957 90.2374 34.147 89.2879L30.7115 85.8495C29.7628 84.9 29.7628 83.3605 30.7115 82.411L82.176 30.9028Z" fill="#1C1500"></path>
<path d="M140.4 120C140.4 108.733 131.267 99.6 120 99.6C108.733 99.6 99.6 108.733 99.6 120C99.6 131.267 108.733 140.4 120 140.4V150C103.431 150 90 136.569 90 120C90 103.431 103.431 90 120 90C136.569 90 150 103.431 150 120C150 136.569 136.569 150 120 150V140.4C131.267 140.4 140.4 131.267 140.4 120Z" fill="#1C1500"></path>
</svg></svg></g></g><defs><clipPath id="SvgjsClipPath1055"><rect width="1000" height="1000" x="0" y="0" rx="350" ry="350"></rect></clipPath></defs></svg>